# AST/ASF file generated using VICON BodyLanguage
# -----------------------------------------------
:version 1.10
:name VICON
:units
  mass 1.0
  length 0.45
  angle deg
:documentation
   .ast/.asf automatically generated from VICON data using
   VICON BodyBuilder and BodyLanguage model FoxedUp or BRILLIANT.MOD
:root
   order TX TY TZ RX RY RZ
   axis XYZ
   position 0 0 0  
   orientation 0 0 0 
:bonedata
  begin
     id 1 
     name lhipjoint
     direction 0.62366 -0.717238 0.310833 
     length 2.53602 
     axis 0 0 0  XYZ
  end
  begin
     id 2 
     name lfemur
     direction 0.34202 -0.939693 0  
     length 7.40817  
     axis 0 0 20  XYZ
    dof rx ry rz
    limits (-160.0 20.0)
           (-70.0 70.0)
           (-60.0 70.0)
  end
  begin
     id 3 
     name ltibia
     direction 0.34202 -0.939693 0   
     length 7.7045   
     axis 0 0 20   XYZ
    dof rx
    limits (-10.0 170.0)
  end
  begin
     id 4 
     name lfoot
     direction 0.0673888 -0.185149 0.980397   
     length 2.09456   
     axis -90 7.62852e-016 20   XYZ
    dof rx rz
    limits (-45.0 90.0)
           (-70.0 20.0)
  end
  begin
     id 5 
     name ltoes
     direction 1.53575e-011 -4.21994e-011 1   
     length 1.05543   
     axis -90 7.62852e-016 20   XYZ
    dof rx
    limits (-90.0 20.0)
  end
  begin
     id 6 
     name rhipjoint
     direction -0.489018 -0.800347 0.346851   
     length 2.27268  
     axis 0 0 0  XYZ 
  end
  begin
     id 7 
     name rfemur
     direction -0.34202 -0.939693 0   
     length 7.55487   
     axis 0 0 -20   XYZ
    dof rx ry rz
    limits (-160.0 20.0)
           (-70.0 70.0)
           (-70.0 60.0)
  end
  begin
     id 8 
     name rtibia
     direction -0.34202 -0.939693 0   
     length 7.78969   
     axis 0 0 -20   XYZ
    dof rx
    limits (-10.0 170.0)
 end
 begin
     id 9 
     name rfoot
     direction -0.0859318 -0.236096 0.967923   
     length 2.19143  
     axis -90 -7.62852e-016 -20   XYZ
    dof rx rz
    limits (-45.0 90.0)
           (-20.0 70.0)
  end
  begin
     id 10 
     name rtoes
     direction -1.53538e-011 -4.21989e-011 1   
     length 1.09845   
     axis -90 -7.62852e-016 -20   XYZ
    dof rx
    limits (-90.0 20.0)
  end
  begin
     id 11 
     name lowerback
     direction -0.00762546 0.998978 -0.0445553   
     length 1.98161   
     axis 0 0 0   XYZ
    dof rx ry rz
    limits (-20.0 45.0)
           (-30.0 30.0)
           (-30.0 30.0)
  end
  begin
     id 12 
     name upperback
     direction 0.0422361 0.998867 -0.0219156   
     length 1.97558   
     axis 0 0 0   XYZ
    dof rx ry rz
    limits (-20.0 45.0)
           (-30.0 30.0)
           (-30.0 30.0)
  end
  begin
     id 13 
     name thorax
     direction 0.0442465 0.999021 7.47603e-005   
     length 1.97799   
     axis 0 0 0   XYZ
    dof rx ry rz
    limits (-20.0 45.0)
           (-30.0 30.0)
           (-30.0 30.0)
  end
  begin
     id 14 
     name lowerneck
     direction 0.00312169 0.984641 0.174564   
     length 1.78995   
     axis 0 0 0   XYZ
    dof rx ry rz
    limits (-20.0 45.0)
           (-30.0 30.0)
           (-30.0 30.0)
  end
  begin
     id 15 
     name upperneck
     direction -0.0383028 0.985255 -0.166749   
     length 1.83053   
     axis 0 0 0   XYZ
    dof rx ry rz
    limits (-20.0 45.0)
           (-30.0 30.0)
           (-30.0 30.0)
  end
  begin
     id 16
     name head
     direction -0.0129546 0.997059 -0.0755386  
     length 1.84088  
     axis 0 0 0   XYZ
    dof rx ry rz
    limits (-20.0 45.0)
           (-30.0 30.0)
           (-30.0 30.0)
  end
  begin
     id 17 
     name lclavicle
     direction 0.912857 0.370519 -0.171488  
     length 3.51279  
     axis 0 0 0   XYZ
    dof ry rz
    limits (-20.0 10.0)
           (0.0 20.0)
  end
  begin
     id 18 
     name lhumerus
     direction 1 -4.48962e-011 3.64361e-027   
     length 4.95663   
     axis 180 -30 -90   XYZ
    dof rx ry rz
    limits (-60.0 90.0)
           (-90.0 90.0)
           (-90.0 90.0)
  end
  begin
     id 19
     name lradius
     direction 1 -4.48974e-011 5.97202e-027   
     length 3.38177   
     axis 180 -30 -90   XYZ
    dof rx
    limits (-10.0 170.0)
  end
  begin
     id 20
     name lwrist
     direction 1 -4.4896e-011 9.83288e-027   
     length 1.69088   
     axis -9.31221e-015 90 90   XYZ
    dof ry
    limits (-180.0 0.0)
 end
  begin
     id 21 
     name lhand
     direction 1 -4.4902e-011 1.96551e-026   
     length 0.662909   
     axis -1.25475e-014 90 90   XYZ
    dof rx rz
    limits (-90.0 90.0)
           (-45.0 45.0)
  end
  begin
     id 22 
     name lfingers
     direction 1 -4.48971e-011 3.93277e-026   
     length 0.534454   
     axis -2.50945e-014 90 90   XYZ
    dof rx
    limits (0.0 90.0)
  end
  begin
     id 23
     name lthumb
     direction 0.707107 -6.34933e-011 0.707107   
     length 0.767373   
     axis -90 45 -4.80359e-014   XYZ
    dof rx rz
    limits (-45.0 45.0)
           (-45.0 45.0)
  end
  begin
     id 24 
     name rclavicle
     direction -0.900919 0.395364 -0.178976   
     length 3.40627  
     axis 0 0 0   XYZ 
    dof ry rz
    limits (-10.0 20.0)
           (-20.0 0.0)
  end
  begin
     id 25 
     name rhumerus
     direction -1 -4.48969e-011 1.03875e-027  
     length 5.08365   
     axis 180 30 90   XYZ
    dof rx ry rz
    limits (-90.0 60.0)
           (-90.0 90.0)
           (-90.0 90.0)
  end
  begin
     id 26 
     name rradius
     direction -1 -4.48951e-011 5.02733e-027   
     length 3.35984   
     axis 180 30 90   XYZ
    dof rx
    limits (-10.0 170.0)
  end
  begin
     id 27 
     name rwrist
     direction -1 -4.49011e-011 9.82828e-027   
     length 1.67992   
     axis -9.31221e-015 -90 -90   XYZ
    dof ry
    limits (-180.0 0.0)
  end
  begin
     id 28
     name rhand
     direction -1 -4.48894e-011 1.96774e-026   
     length 0.820764   
     axis -1.25475e-014 -90 -90   XYZ
    dof rx rz
    limits (-90.0 90.0)
           (-45.0 45.0)
  end
  begin
     id 29
     name rfingers
     direction -1 -4.49095e-011 3.92833e-026   
     length 0.661721   
     axis -2.50945e-014 -90 -90   XYZ
    dof rx
    limits (0.0 90.0)
  end
  begin
     id 30
     name rthumb
     direction -0.707107 -6.34881e-011 0.707107   
     length 0.950103   
     axis -90 -45 4.80359e-014   XYZ
    dof rx rz
    limits (-45.0 45.0)
           (-45.0 45.0)
  end
:hierarchy
  begin
    root lhipjoint rhipjoint lowerback
    lhipjoint lfemur
    lfemur ltibia
    ltibia lfoot
    lfoot ltoes
    rhipjoint rfemur
    rfemur rtibia
    rtibia rfoot
    rfoot rtoes
    lowerback upperback
    upperback thorax
    thorax lowerneck lclavicle rclavicle
    lowerneck upperneck
    upperneck head
    lclavicle lhumerus
    lhumerus lradius
    lradius lwrist
    lwrist lhand lthumb
    lhand lfingers
    rclavicle rhumerus
    rhumerus rradius
    rradius rwrist
    rwrist rhand rthumb
    rhand rfingers
  end

#!OML:ASF I:\golf\golf\golf 2\Subject 1\2002-09-07\Subject1.ASF
:FULLY-SPECIFIED
:DEGREES
93
root -6.80014 17.6614 0.114614 -21.8156 80.0792 -35.9024
lowerback 4.83951 3.49437 -5.5477
upperback 4.97265 4.5825 3.00563
thorax 1.77607 2.15068 6.06444
lowerneck -15.4047 0.43962 0.839109
upperneck 37.4336 3.93917 -4.83809
head 16.0378 1.54986 -1.41134
rclavicle 9.73796e-014 1.09332e-015
rhumerus -11.4828 2.888 -102.929
rradius 41.5172
rwrist -67.7754
rhand -37.1446 -4.95403
rfingers 7.12502
rthumb -10.2142 -34.6861
lclavicle 9.73796e-014 1.09332e-015
lhumerus 18.6462 -77.7514 77.0005
lradius 25.421
lwrist 23.2603
lhand 3.71633 55.923
lfingers 7.12502
lthumb -150.855 263.662
rfemur -34.0988 -3.84308 19.1767
rtibia 35.8814
rfoot -11.2057 4.24794
rtoes 6.46541
lfemur -26.0234 11.1261 -4.75004
ltibia 31.6835
lfoot -12.3285 2.44736
ltoes -22.6946
94
root -6.80835 17.664 0.161835 -22.0663 79.7362 -36.2211
lowerback 4.81022 3.30309 -5.70825
upperback 4.95441 4.3231 2.9881
thorax 1.80237 2.01526 6.15249
lowerneck -15.3346 0.748197 0.846377
upperneck 37.2544 4.4115 -4.94683
head 15.957 1.7265 -1.37477
rclavicle -7.06804e-014 -2.06736e-014
rhumerus -11.8848 3.32148 -102.599
rradius 42.6751
rwrist -68.7098
rhand -36.8548 -5.90615
rfingers 7.12502
rthumb -9.93452 -35.6517
lclavicle -7.06804e-014 -2.06736e-014
lhumerus 21.373 -78.1711 74.4395
lradius 25.4577
lwrist 22.652
lhand 3.50066 55.081
lfingers 7.12502
lthumb -151.061 262.855
rfemur -34.2217 -3.72123 19.6352
rtibia 35.8893
rfoot -11.2834 4.48311
rtoes 5.79222
lfemur -25.9781 11.41 -4.38224
ltibia 31.5367
lfoot -12.0722 2.7409
ltoes -24.4044
95
root -6.81336 17.6656 0.209547 -22.155 79.3869 -36.412
lowerback 4.72103 3.14362 -5.76031
upperback 4.92565 4.11133 2.86463
thorax 1.85861 1.90645 6.06773
lowerneck -15.2727 1.0327 1.02044
upperneck 37.114 4.79354 -5.0468
head 15.8975 1.89106 -1.38109
rclavicle -2.67862e-014 -1.41137e-014
rhumerus -12.2763 3.84717 -102.385
rradius 43.9264
rwrist -69.9368
rhand -37.9983 -5.3142
rfingers 7.12502
rthumb -11.0377 -35.004
lclavicle -2.67862e-014 -1.41137e-014
lhumerus 24.5632 -78.6665 71.3246
lradius 25.5466
lwrist 22.1797
lhand 3.2252 54.0131
lfingers 7.12502
lthumb -151.324 261.832
rfemur -34.3571 -3.60032 20.0872
rtibia 35.8831
rfoot -11.3048 4.69739
rtoes 5.55625
lfemur -25.9176 11.5466 -3.99035
ltibia 31.3881
lfoot -11.8545 3.0861
ltoes -24.9244
96
root -6.81514 17.6644 0.257795 -21.4382 78.9069 -35.7123
lowerback 4.64074 3.05938 -5.95283
upperback 4.9404 3.99757 2.7117
thorax 1.93482 1.84183 6.02719
lowerneck -15.167 1.30193 1.26292
upperneck 36.9105 5.1375 -5.19318
head 15.7991 2.04409 -1.4261
rclavicle 3.27995e-015 8.54774e-015
rhumerus -12.4693 3.59235 -102.22
rradius 44.7995
rwrist -70.386
rhand -39.8358 -3.61798
rfingers 7.12502
rthumb -12.8095 -33.205
lclavicle 3.27995e-015 8.54774e-015
lhumerus 27.3473 -78.8281 68.7487
lradius 25.3749
lwrist 20.8453
lhand 3.83048 52.7325
lfingers 7.12502
lthumb -150.746 260.452
rfemur -34.4148 -3.55419 20.485
rtibia 35.8782
rfoot -11.2868 5.09246
rtoes 5.55395
lfemur -25.5958 11.687 -3.61672
ltibia 31.2261
lfoot -11.8336 3.37947
ltoes -24.4936
97
root -6.81879 17.6625 0.299088 -20.8315 78.4884 -35.0092
lowerback 4.71072 2.92006 -6.13869
upperback 5.00834 3.80635 2.57122
thorax 1.99435 1.73886 5.99314
lowerneck -15.1085 1.61807 1.4943
upperneck 36.6809 5.56061 -5.371
head 15.7074 2.22224 -1.46814
rclavicle -3.53837e-014 -1.0138e-014
rhumerus -12.4992 2.86422 -102.029
rradius 45.5136
rwrist -70.4599
rhand -40.7711 -2.27354
rfingers 7.12502
rthumb -13.711 -31.8018
lclavicle -3.53837e-014 -1.0138e-014
lhumerus 31.2745 -79.1035 65.0553
lradius 25.2703
lwrist 19.7363
lhand 4.15465 51.7418
lfingers 7.12502
lthumb -150.437 259.407
rfemur -34.3443 -3.58801 20.813
rtibia 35.8851
rfoot -11.3268 5.52032
rtoes 5.34083
lfemur -25.1737 11.7488 -3.30392
ltibia 31.0385
lfoot -11.8224 3.68715
ltoes -24.4285
98
root -6.82338 17.6619 0.337174 -20.8555 78.1547 -35.0467
lowerback 4.69184 2.62934 -6.17783
upperback 5.04395 3.42091 2.48453
thorax 2.10262 1.54062 5.94518
lowerneck -15.0673 2.0229 1.57262
upperneck 36.5164 6.16262 -5.50697
head 15.6594 2.45914 -1.4338
rclavicle -5.36719e-015 -2.22639e-014
rhumerus -12.6545 2.7738 -101.779
rradius 46.4763
rwrist -71.0061
rhand -41.554 -1.51373
rfingers 7.12502
rthumb -14.4655 -30.9895
lclavicle -5.36719e-015 -2.22639e-014
lhumerus 34.902 -79.2314 61.6401
lradius 25.3179
lwrist 19.054
lhand 3.79423 51.0617
lfingers 7.12502
lthumb -150.781 258.788
rfemur -34.375 -3.57375 21.1982
rtibia 35.8952
rfoot -11.3249 5.88587
rtoes 5.53518
lfemur -24.9023 11.6579 -2.91379
ltibia 30.8093
lfoot -11.7231 4.05394
ltoes -24.4845
99
root -6.82439 17.6619 0.384161 -20.8382 77.6644 -35.2035
lowerback 4.40792 2.29447 -6.34838
upperback 5.03372 2.98448 2.5449
thorax 2.30612 1.3071 6.13791
lowerneck -15.004 2.48873 1.40931
upperneck 36.4085 6.95522 -5.65645
head 15.6402 2.74264 -1.32898
rclavicle -1.96797e-014 -2.38542e-015
rhumerus -12.9909 3.19191 -101.399
rradius 47.5708
rwrist -71.6098
rhand -42.7695 -0.685321
rfingers 7.12502
rthumb -15.6364 -30.0734
lclavicle -1.96797e-014 -2.38542e-015
lhumerus 35.662 -78.7362 61.3184
lradius 25.1655
lwrist 18.0055
lhand 3.47493 50.1304
lfingers 7.12502
lthumb -151.086 257.909
rfemur -34.5771 -3.31941 21.6913
rtibia 35.9139
rfoot -11.3249 6.08421
rtoes 5.8039
lfemur -24.6975 11.7207 -2.41278
ltibia 30.5497
lfoot -11.5682 4.47926
ltoes -24.7508
100
root -6.8238 17.6625 0.436718 -20.035 76.9597 -34.3193
lowerback 4.354 2.08805 -6.75382
upperback 5.08744 2.70473 2.58136
thorax 2.42131 1.14768 6.42267
lowerneck -14.9532 2.9074 1.21686
upperneck 36.2783 7.66781 -5.77797
head 15.6054 2.99275 -1.22102
rclavicle 2.14687e-014 -6.36111e-015
rhumerus -13.2791 3.39343 -101.003
rradius 48.5871
rwrist -71.8447
rhand -43.5465 -0.0163801
rfingers 7.12502
rthumb -16.3846 -29.3443
lclavicle 2.14687e-014 -6.36111e-015
lhumerus 36.7317 -78.3085 60.6957
lradius 25.0212
lwrist 17.0144
lhand 3.00712 49.0738
lfingers 7.12502
lthumb -151.533 256.928
rfemur -34.5181 -2.81506 22.0317
rtibia 35.9333
rfoot -11.332 6.32639
rtoes 6.50249
lfemur -24.0774 11.9573 -1.97911
ltibia 30.2777
lfoot -11.4906 4.97973
ltoes -25.2551
101
root -6.82534 17.6617 0.480305 -18.9095 76.5732 -33.1989
lowerback 4.31513 1.85958 -7.0583
upperback 5.07654 2.39583 2.41333
thorax 2.47961 0.98276 6.43122
lowerneck -14.8255 3.21802 1.22052
upperneck 36.0716 8.11059 -5.83649
head 15.5022 3.16895 -1.1704
rclavicle 7.15625e-015 2.38542e-015
rhumerus -13.4645 3.01931 -100.791
rradius 49.5539
rwrist -71.7769
rhand -43.9738 0.335104
rfingers 7.12502
rthumb -16.796 -28.9584
lclavicle 7.15625e-015 2.38542e-015
lhumerus 39.9398 -78.3932 57.7299
lradius 25.0523
lwrist 16.147
lhand 2.63263 48.0895
lfingers 7.12502
lthumb -151.891 256.003
rfemur -34.5767 -2.58437 22.1428
rtibia 35.9535
rfoot -11.2599 6.61906
rtoes 7.39016
lfemur -23.7062 11.9493 -1.83063
ltibia 30.0255
lfoot -11.3783 5.48195
ltoes -25.7903
102
root -6.82789 17.6581 0.521455 -18.2447 76.275 -32.5731
lowerback 4.28581 1.6915 -7.15711
upperback 5.04698 2.17151 2.20352
thorax 2.50614 0.869348 6.27351
lowerneck -14.7024 3.45384 1.29704
upperneck 35.8798 8.40275 -5.84813
head 15.3995 3.2999 -1.13983
rclavicle 1.51076e-014 -1.74931e-014
rhumerus -13.5932 2.22098 -100.553
rradius 50.5847
rwrist -71.5676
rhand -44.5563 0.867418
rfingers 7.12502
rthumb -17.3566 -28.3776
lclavicle 1.51076e-014 -1.74931e-014
lhumerus 44.9053 -78.7591 53.1037
lradius 25.0719
lwrist 15.2723
lhand 1.86059 46.8777
lfingers 7.12502
lthumb -152.629 254.91
rfemur -34.6695 -2.62738 22.388
rtibia 35.9783
rfoot -11.21 6.96346
rtoes 7.82795
lfemur -23.4298 11.8334 -1.62228
ltibia 29.7827
lfoot -11.2594 5.90111
ltoes -25.6174
103
root -6.82939 17.6541 0.566471 -18.0575 75.8902 -32.4016
lowerback 4.27938 1.55591 -7.12958
upperback 5.02238 1.99156 2.06191
thorax 2.5175 0.781913 6.11363
lowerneck -14.5551 3.72246 1.30974
upperneck 35.6874 8.77578 -5.87783
head 15.2948 3.4563 -1.09221
rclavicle 1.94809e-014 -2.22639e-014
rhumerus -13.7543 1.57658 -100.053
rradius 51.7431
rwrist -71.4343
rhand -45.3136 1.66269
rfingers 7.12502
rthumb -18.0854 -27.5165
lclavicle 1.94809e-014 -2.22639e-014
lhumerus 50.845 -79.1208 47.6155
lradius 25.1235
lwrist 14.4823
lhand 0.0253677 45.6876
lfingers 7.12502
lthumb -154.385 253.985
rfemur -34.7217 -2.74285 22.8232
rtibia 36.0237
rfoot -11.2245 7.41389
rtoes 8.07369
lfemur -23.0904 11.738 -1.24174
ltibia 29.5517
lfoot -11.2431 6.31341
ltoes -24.8394
104
root -6.82911 17.6524 0.614679 -17.2929 75.4638 -31.6319
lowerback 4.19484 1.40028 -7.31056
upperback 5.01017 1.78631 1.94054
thorax 2.58498 0.672157 6.09697
lowerneck -14.2922 4.04339 1.24972
upperneck 35.391 9.24785 -5.95029
head 15.1193 3.64529 -1.03584
rclavicle -1.94809e-014 -7.15625e-015
rhumerus -13.9926 1.18729 -99.4802
rradius 53.0157
rwrist -71.1859
rhand -46.241 2.33466
rfingers 7.12502
rthumb -18.9775 -26.7595
lclavicle -1.94809e-014 -7.15625e-015
lhumerus 56.6684 -79.2469 42.2564
lradius 25.1787
lwrist 13.5208
lhand -1.72919 44.3473
lfingers 7.12502
lthumb -156.067 252.876
rfemur -34.7537 -2.57958 23.0468
rtibia 36.0765
rfoot -11.2269 7.81453
rtoes 8.26962
lfemur -22.7009 11.7493 -1.00675
ltibia 29.3439
lfoot -11.2543 6.74861
ltoes -24.4548
